<svg version="1.1" class="main__whatWeDo_listImg" xmlns="http://www.w3.org/2000/svg" xmlns:xlink="http://www.w3.org/1999/xlink" x="0px" y="0px" viewBox="0 0 100 100" enable-background="new 0 0 100 100" xml:space="preserve">
<g>
	<path class="basicColor" fill="#BF5051" d="M100,50c0,4.9-0.699,9.631-2.02,14.101C91.9,84.851,72.721,100,50,100
		c-1.719,0-3.43-0.09-5.109-0.26c-0.121-0.01-0.231-0.02-0.35-0.039C19.5,96.98,0,75.771,0,50C0,22.391,22.391,0,50,0
		c27.211,0,49.34,21.73,49.98,48.781c0.01,0.02,0.01,0.049,0,0.069C100,49.23,100,49.621,100,50z"/>	
	<path class="shadow" opacity="0.6" d="M99.99,48.791l-0.01,0.06l-2,15.25C91.9,84.851,72.721,100,50,100
		c-1.719,0-3.43-0.09-5.109-0.26l-0.34-0.029l-0.01-0.01L30.09,85l19.211-58.739l20.219-7.28L99.98,48.781L99.99,48.791z"/>
	<g>
		<path fill="#D96E50" d="M62.43,41.271v0.355c0.041,1.947,0.334,3.906,0.777,5.904c1.354,6.047,4.049,12.468,4.824,20.039
			c1.152,11.326,1.891,17.434,1.891,17.434H30.086c0,0,0.738-6.107,1.889-17.434c0.777-7.571,3.473-13.992,4.824-20.039
			c0.445-1.998,0.738-3.957,0.777-5.904v-0.355c0-9.761-9.113-13.535-9.113-13.535v-5.33c0-3.715,5.258-4.978,9.769-7.4
			c0,0,2.857,7.863,11.771,7.863s11.77-7.863,11.77-7.863c4.512,2.423,9.773,3.686,9.773,7.4v5.33
			C71.547,27.736,62.43,31.511,62.43,41.271z"/>
		<path fill="#DF854F" d="M50.004,85.006L50.004,85.006H69.92c0,0-0.736-6.106-1.891-17.44c-1.041-10.228-5.598-18.352-5.598-26.29
			c0-9.761,9.113-13.537,9.113-13.537v-5.336c0-3.715-5.258-4.971-9.771-7.396c0,0-2.854,7.867-11.77,7.867V85.006L50.004,85.006z"
			/>
		<path fill="#FFFFFF" d="M50.004,26.979c-7.939,0-14.361-4.744-14.617-10.801l0.988-0.043c0.234,5.526,6.221,9.854,13.629,9.854
			s13.395-4.327,13.629-9.854l0.988,0.043C64.365,22.234,57.943,26.979,50.004,26.979z"/>
		<path fill="#F0BD44" d="M63.201,47.532H36.793c0.123-0.524,0.225-1.05,0.314-1.574c0.172-0.929,0.303-1.838,0.373-2.757
			c0.051-0.523,0.08-1.049,0.092-1.574h24.851c0.01,0.525,0.041,1.051,0.094,1.574c0.08,0.919,0.199,1.828,0.373,2.757
			C62.98,46.482,63.092,47.008,63.201,47.532z"/>
		<path fill="#F6CE45" d="M62.891,45.958H37.107c0.172-0.929,0.303-1.838,0.373-2.757h25.037
			C62.598,44.12,62.717,45.029,62.891,45.958z"/>
	</g>
</g>
</svg>
