<svg version="1.1" class="main__whatWeDo_listImg" xmlns="http://www.w3.org/2000/svg" xmlns:xlink="http://www.w3.org/1999/xlink" x="0px" y="0px"
	 viewBox="0 0 99.74 99.93" enable-background="new 0 0 99.74 99.93" xml:space="preserve">
<g>
	<path class="basicColor" fill="#674539" d="M100,50c0,1.26-0.05,2.5-0.14,3.74c-1.79,24.25-20.88,43.68-44.97,46.02
		C53.28,99.92,51.65,100,50,100c-0.92,0-1.83-0.021-2.73-0.07c-0.03,0-0.05-0.01-0.07-0.01C20.88,98.47,0,76.68,0,50
		C0,22.39,22.38,0,50,0C77.61,0,100,22.39,100,50z"/>

	<path class="shadow" opacity="0.6"  d="M99.86,53.74c-1.79,24.25-20.88,43.68-44.97,46.02l-7.62,0.17h-0.06
		l-0.01-0.01l-29.82-30.2l5.31-6.63l1.25-9.48l-3.89-3.89l2.75-3.05L26.33,50l1.61,0.84l2.42-4.8l-2.54-8.57l-2.05-2.12l2.63-3.1
		l6.62,6.479L31.1,24.76l1.7-0.9l7.85,7.771l0.33-7.74l1.31-3.13l9.27,9.21l2.54-10.71l1.78-0.5l14.43,14.19l3.79-6.471l25.64,25.79
		L99.86,53.74z"/>
	<g>
		<polygon fill="#C8C8C8" points="82.61,69.717 17.384,69.717 18.415,63.197 81.581,63.197 		"/>
		<path fill="#EBC046" d="M78.491,63.197H21.504c0-13.091,12.75-23.688,28.488-23.688C65.73,39.509,78.491,50.106,78.491,63.197z"/>
		<path fill="#F6CE45" d="M78.491,63.197c0-13.091-12.761-23.688-28.498-23.688v23.688H78.491z"/>
		
			<rect x="19.949" y="51.415" transform="matrix(0.6985 0.7156 -0.7156 0.6985 44.7431 -2.3047)" fill="#878787" width="10.316" height="1.071"/>
		<circle fill="#D96E50" cx="21.504" cy="48.26" r="2.06"/>
		
			<rect x="20.19" y="43.068" transform="matrix(0.2838 0.9589 -0.9589 0.2838 63.3997 2.2855)" fill="#878787" width="19.96" height="1.03"/>
		<circle fill="#4E9299" cx="27.337" cy="34.012" r="2.06"/>
		<path fill="#969696" d="M55.175,18.31c-0.642-0.129-1.266,0.286-1.396,0.928l-6.566,32.529l1.006,0.223l7.871-32.237
			c0.004-0.014,0.008-0.032,0.01-0.047C56.23,19.065,55.816,18.44,55.175,18.31z M55.126,21.101
			c-0.076,0.272-0.212,0.552-0.313,0.838c-0.394,1.147-0.877,2.275-0.877,2.275c-0.012,0.026-0.042,0.039-0.068,0.028
			c-0.021-0.01-0.032-0.03-0.032-0.051c0,0,0.04-1.227,0.173-2.433c0.029-0.303,0.024-0.612,0.071-0.893
			c0.063-0.274,0.172-0.521,0.289-0.726c0.228-0.413,0.517-0.658,0.517-0.658c0.026-0.022,0.067-0.02,0.091,0.008
			c0.004,0.004,0.007,0.011,0.01,0.015c0,0,0.157,0.344,0.188,0.814C55.192,20.555,55.186,20.824,55.126,21.101z"/>
		
			<rect x="28.02" y="35.042" transform="matrix(0.0195 0.9998 -0.9998 0.0195 75.989 -6.3673)" fill="#878787" width="26.441" height="1.03"/>
		<circle fill="#F6CE45" cx="40.983" cy="22.34" r="2.06"/>
		
			<rect x="66.812" y="26.958" transform="matrix(0.8972 0.4415 -0.4415 0.8972 24.6588 -25.5989)" fill="#878787" width="1.031" height="26.44"/>
		<circle fill="#E18E49" cx="73.156" cy="28.314" r="2.06"/>
		
			<rect x="57.687" y="34.896" transform="matrix(0.9016 0.4326 -0.4326 0.9016 23.0576 -21.2456)" fill="#878787" width="1.072" height="10.316"/>
		<circle fill="#62B9C9" cx="60.457" cy="35.404" r="2.06"/>
		
			<rect x="71.3" y="38.239" transform="matrix(0.8861 0.4634 -0.4634 0.8861 30.5214 -27.7895)" fill="#878787" width="1.03" height="19.959"/>
		<circle fill="#F0BD44" cx="76.43" cy="39.37" r="2.059"/>
		<path fill="#969696" d="M40.928,54.581l-7.785-30.158c-0.004-0.015-0.009-0.034-0.014-0.048c-0.19-0.626-0.852-0.98-1.477-0.789
			c-0.626,0.191-0.978,0.852-0.788,1.478l9.072,29.797L40.928,54.581z M33.311,29.43c-0.021,0.002-0.042-0.01-0.052-0.028
			c0.001,0-0.545-1.101-1-2.225c-0.117-0.279-0.268-0.551-0.359-0.818c-0.074-0.273-0.095-0.542-0.089-0.778
			c0.005-0.472,0.142-0.823,0.142-0.823c0.014-0.032,0.051-0.05,0.084-0.036c0.006,0.002,0.012,0.006,0.017,0.008
			c0,0,0.302,0.229,0.55,0.629c0.128,0.199,0.251,0.438,0.329,0.71c0.063,0.276,0.074,0.586,0.121,0.886
			c0.196,1.197,0.305,2.42,0.306,2.42C33.362,29.402,33.339,29.428,33.311,29.43z"/>
		<polygon fill="#DCDCDC" points="81.83,64.775 81.581,63.197 18.415,63.197 18.165,64.775 		"/>
	</g>
</g>
</svg>
