<svg version="1.1" class="main__whatWeDo_listImg" xmlns="http://www.w3.org/2000/svg" xmlns:xlink="http://www.w3.org/1999/xlink" x="0px" y="0px"
	 viewBox="0 0 100 99.96" enable-background="new 0 0 100 99.96" xml:space="preserve">
<g>
	<path class="basicColor" fill="#674539" d="M100,50c0,2.18-0.141,4.33-0.41,6.44C96.43,81.02,75.43,100,50,100
		c-1.33,0-2.65-0.05-3.959-0.16C20.27,97.83,0,76.29,0,50C0,22.39,22.381,0,50,0C77.609,0,100,22.39,100,50z"/>
	<path class="shadow" opacity="0.6" d="M99.59,56.44C96.43,81.02,75.43,100,50,100
		c-1.33,0-2.65-0.05-3.959-0.16L20.949,75.5l9.191-11.46l-0.201-1.6l-8.289-8.47L33.961,20.5l9.869,9.75l28,1.25l2.06,2.01
		l2.949,0.34L99.59,56.44z"/>
	<g>
		<path fill="#4E9299" d="M77.461,44.382c0,0.873-0.708,1.581-1.581,1.581h-3.754V33.514h3.754c0.873,0,1.581,0.708,1.581,1.581
			V44.382z"/>
		<path fill="#62B9C9" d="M76.869,48.63c-2.183,0-3.952-1.77-3.952-3.952V34.205c0-2.183-1.77-3.952-3.952-3.952H24.899
			c-2.183,0-3.952,1.77-3.952,3.952V48.63v3.359c0,1.746,1.416,3.162,3.162,3.162h10.67c0-3.602,2.92-6.521,6.52-6.521h12.153
			c1.746,0,3.162,1.415,3.162,3.162v13.042h20.748V48.63H76.869z"/>
		<rect x="33.957" y="33.513" fill="#4E9299" width="35.699" height="11.165"/>
		<path fill="#C8C8C8" d="M79.043,75.504H20.946v-8.3c0-1.746,1.416-3.162,3.162-3.162h51.772c1.746,0,3.162,1.416,3.162,3.162
			V75.504z"/>
		<circle fill="#F0BD44" cx="47.03" cy="38.948" r="3.458"/>
		<circle fill="#F0BD44" cx="61.386" cy="38.948" r="3.458"/>
		<rect x="30.137" y="21.657" fill="#F0BD44" width="4.643" height="8.596"/>
		<rect x="61.387" y="52.779" fill="#F0BD44" width="11.531" height="2.372"/>
		<rect x="61.387" y="59.399" fill="#F0BD44" width="11.531" height="2.371"/>
		<rect x="25.492" y="55.151" fill="#4E9299" width="7.607" height="2.569"/>
		<polygon fill="#C8C8C8" points="30.926,57.72 30.137,64.043 29.346,57.72 		"/>
		<rect x="30.959" y="20.504" fill="#969696" width="2.998" height="1.153"/>
		<path fill="#DCDCDC" d="M20.986,66.809h58.016c-0.195-1.557-1.51-2.766-3.119-2.766H24.109
			C22.5,64.043,21.184,65.252,20.986,66.809z"/>
		<path fill="#F6CE45" d="M44.133,40.828c0.129,0.2,0.281,0.392,0.457,0.567c0.174,0.176,0.367,0.327,0.566,0.457l4.773-4.785
			c-0.129-0.201-0.281-0.392-0.455-0.567c-0.178-0.176-0.369-0.327-0.57-0.457L44.133,40.828z"/>
		<path fill="#F6CE45" d="M58.715,36.753c-0.152,0.185-0.287,0.386-0.402,0.608c-0.115,0.221-0.201,0.449-0.264,0.68l6.006,3.101
			c0.152-0.185,0.289-0.387,0.402-0.608c0.113-0.222,0.199-0.45,0.262-0.68L58.715,36.753z"/>
		<rect x="27.32" y="30.253" fill="#6FBDC9" width="3.953" height="21.506"/>
		<rect x="32.459" y="21.657" fill="#F6CE45" width="2.32" height="8.596"/>
	</g>
</g>
</svg>
