<svg version="1.1" class="main__whatWeDo_listImg" xmlns="http://www.w3.org/2000/svg" xmlns:xlink="http://www.w3.org/1999/xlink" x="0px" y="0px"
	 viewBox="0 0 100 100" enable-background="new 0 0 100 100" xml:space="preserve">
<g>
	<path class="basicColor" fill="#6FBDC9" d="M100,50c0,2.98-0.26,5.9-0.76,8.74c-3.75,21.25-20.92,37.87-42.44,40.8
		c-2.22,0.3-4.49,0.46-6.8,0.46C22.38,100,0,77.61,0,50C0,22.38,22.38,0,50,0C77.61,0,100,22.38,100,50z"/>	
	<path class="shadow" opacity="0.5" fill="url(#shadow_1_)" d="M99.29,55.8l-0.05,2.94c-3.75,21.25-20.92,37.87-42.44,40.8L45.79,99.8
		L35.45,89.75l2.15-1.64L50,78.54L49.06,66.8l-9.75-9.63l7.11-31.5L53.22,10l6.48,6.65l2.42,1.5L99.29,55.8z"/>
	<g>
		<path fill="#4E9299" d="M49.996,57.169h10.686c0,0,0.076-4.275,0.076-10.413c0-6.139-3.341-10.958-3.341-15.698
			c0-5.828,5.44-8.082,5.44-8.082v-3.186c0-3.886-9.637-3.264-9.637-9.792h-3.224h-3.224c0,6.528-9.638,5.906-9.638,9.792v3.186
			c0,0,5.441,2.254,5.441,8.082c0,4.74-3.342,9.559-3.342,15.698c0,6.139,0.077,10.413,0.077,10.413H49.996z"/>
		<polygon fill="#DCDCDC" points="36.933,89.997 35.78,88.531 49.063,78.086 49.063,57.169 50.928,57.169 50.928,78.993 		"/>
		
			<rect x="48.14" y="82.969" transform="matrix(0.7861 0.6182 -0.6182 0.7861 64.0189 -17.17)" fill="#DCDCDC" width="17.349" height="1.865"/>
		<rect x="49.063" y="78.54" fill="#DCDCDC" width="1.865" height="10.725"/>
		<g>
			<rect x="35.454" y="87.723" fill="#C8C8C8" width="4.837" height="2.031"/>
			<rect x="59.7" y="87.723" fill="#C8C8C8" width="4.837" height="2.031"/>
			<rect x="47.577" y="87.723" fill="#C8C8C8" width="4.837" height="2.031"/>
		</g>
		<path fill="#4E9BA2" d="M60.681,57.169c0,0,0.076-4.275,0.076-10.413c0-6.139-3.341-10.958-3.341-15.698
			c0-5.828,5.44-8.082,5.44-8.082v-3.186c0-3.886-9.637-3.264-9.637-9.792h-3.224v47.172H60.681z"/>
	</g>
</g>
</svg>
